<?xml version="1.0" standalone="no"?>
<!DOCTYPE svg PUBLIC "-//W3C//DTD SVG 20010904//EN"
 "http://www.w3.org/TR/2001/REC-SVG-20010904/DTD/svg10.dtd">
<svg version="1.0" xmlns="http://www.w3.org/2000/svg"
 width="1200.000000pt" height="1200.000000pt" viewBox="0 0 1200.000000 1200.000000"
 preserveAspectRatio="xMidYMid meet">

<g transform="translate(0.000000,1200.000000) scale(0.100000,-0.100000)"
fill="#000000" stroke="none">
<path d="M5614 5465 c-28 -14 -59 -40 -74 -62 l-25 -37 0 -351 0 -351 25 -37
c64 -96 230 -116 321 -40 53 45 69 93 69 211 l0 102 -64 0 -64 0 -4 -95 c-3
-104 -11 -120 -65 -131 -26 -5 -37 -1 -57 19 l-26 26 0 294 c0 273 1 296 19
318 13 16 29 23 55 23 55 0 70 -22 74 -109 l4 -75 64 0 64 0 0 83 c0 95 -20
148 -69 190 -63 53 -167 62 -247 22z"/>
<path d="M6355 5476 c-49 -18 -98 -72 -113 -124 -17 -55 -16 -620 0 -675 17
-57 73 -112 128 -127 66 -18 153 -7 200 24 63 42 83 92 88 219 l4 107 -71 0
-70 0 -3 -96 c-3 -91 -4 -98 -29 -117 -39 -28 -86 -16 -105 29 -20 48 -20 550
0 598 19 45 66 57 105 29 24 -18 26 -27 29 -97 l3 -76 71 0 70 0 -4 88 c-5
105 -30 159 -88 198 -50 33 -153 42 -215 20z"/>
<path d="M6880 5478 c-51 -14 -88 -44 -113 -91 -21 -40 -22 -54 -25 -349 -3
-322 0 -359 40 -418 61 -89 241 -107 329 -33 66 56 69 72 69 428 0 289 -2 324
-19 360 -43 95 -159 138 -281 103z m140 -144 c13 -12 15 -62 18 -307 2 -219
-1 -298 -10 -316 -29 -55 -117 -48 -137 11 -15 41 -15 545 0 585 5 17 20 35
32 41 27 14 76 7 97 -14z"/>
<path d="M7407 5476 c-50 -19 -85 -51 -108 -101 -17 -36 -19 -70 -19 -360 0
-289 2 -324 19 -360 36 -81 117 -122 222 -112 98 9 159 55 184 141 12 39 15
112 15 331 0 307 -7 355 -55 407 -14 15 -40 35 -58 44 -43 23 -152 28 -200 10z
m140 -140 l28 -24 0 -297 0 -297 -29 -25 c-35 -29 -80 -26 -108 8 -16 19 -18
50 -18 311 0 186 4 296 11 309 22 42 76 49 116 15z"/>
<path d="M9316 5475 c-51 -18 -101 -67 -115 -114 -15 -53 -15 -640 1 -693 40
-133 258 -174 359 -68 50 52 59 99 59 299 l0 171 -105 0 -105 0 0 -65 0 -65
41 0 42 0 -5 -107 c-3 -60 -9 -115 -12 -125 -10 -23 -58 -40 -90 -32 -54 13
-56 23 -56 340 0 263 2 294 18 313 26 32 72 37 104 12 23 -18 28 -32 34 -91
l7 -70 63 0 64 0 0 61 c0 89 -18 146 -59 189 -55 58 -157 77 -245 45z"/>
<path d="M2400 5015 l0 -466 148 3 c170 4 207 15 250 81 l27 41 0 341 0 341
-27 41 c-43 66 -80 77 -250 81 l-148 3 0 -466z m272 305 c16 -20 18 -46 18
-307 l0 -284 -25 -24 c-19 -20 -34 -25 -75 -25 l-50 0 0 336 0 336 57 -4 c43
-4 61 -10 75 -28z"/>
<path d="M2961 5213 l89 -268 0 -197 0 -198 70 0 70 0 0 193 0 192 90 270 c50
148 90 271 90 272 0 2 -31 3 -70 3 l-69 0 -19 -62 c-10 -35 -32 -109 -48 -165
-16 -57 -32 -103 -35 -103 -3 0 -28 74 -54 165 l-48 165 -78 0 -77 0 89 -267z"/>
<path d="M3440 5015 l0 -465 65 0 65 0 2 333 3 332 78 -300 c43 -165 83 -315
88 -332 l11 -33 74 0 74 0 0 465 0 465 -65 0 -65 0 -2 -277 -3 -278 -71 275
-71 275 -91 3 -92 3 0 -466z"/>
<path d="M4115 5458 c-8 -35 -145 -881 -145 -895 0 -9 20 -13 64 -13 72 0 68
-6 81 105 12 90 7 86 98 83 l82 -3 14 -92 13 -93 73 0 72 0 -22 138 c-13 75
-47 284 -76 465 l-53 327 -98 0 c-93 0 -98 -1 -103 -22z m159 -565 l5 -33 -65
0 c-60 0 -64 2 -64 23 0 31 50 389 57 407 3 8 18 -70 34 -175 15 -104 30 -205
33 -222z"/>
<path d="M4540 5015 l0 -465 65 0 65 0 2 343 3 342 48 -325 c27 -179 51 -333
53 -342 4 -15 17 -18 65 -18 32 0 59 3 59 6 0 14 101 670 104 679 3 6 5 -146
5 -337 l1 -348 65 0 65 0 0 465 0 465 -99 0 -99 0 -6 -27 c-3 -16 -24 -161
-46 -323 -23 -162 -43 -296 -45 -298 -2 -2 -6 9 -9 25 -5 28 -86 604 -86 616
0 4 -47 7 -105 7 l-105 0 0 -465z"/>
<path d="M5260 5015 l0 -465 70 0 70 0 0 465 0 465 -70 0 -70 0 0 -465z"/>
<path d="M7820 5015 l0 -465 70 0 70 0 0 145 c0 143 0 146 32 208 19 39 33 56
36 47 3 -8 31 -100 62 -205 l56 -190 77 -3 c42 -2 77 -2 77 0 0 2 -40 134 -89
293 l-88 290 87 173 87 173 -74 -3 -73 -3 -86 -180 c-47 -99 -90 -184 -95
-189 -5 -6 -9 64 -9 182 l0 192 -70 0 -70 0 0 -465z"/>
<path d="M8370 5015 l0 -465 70 0 70 0 0 465 0 465 -70 0 -70 0 0 -465z"/>
<path d="M8630 5015 l0 -465 60 0 60 0 0 338 c0 185 4 331 9 324 4 -7 46 -159
92 -338 l84 -324 73 0 72 0 0 465 0 465 -60 0 -60 0 -1 -277 c0 -176 -4 -271
-9 -258 -9 18 -140 516 -140 529 0 3 -40 6 -90 6 l-90 0 0 -465z"/>
</g>
</svg>
